<svg xmlns="http://www.w3.org/2000/svg" width="343" height="328" viewBox="0 0 343 328" role="img" aria-label="ComfyUI Companion">
  <defs>
    <radialGradient id="bg-glow" cx="0" cy="0" r="1" gradientTransform="matrix(174 0 0 168 172 164)" gradientUnits="userSpaceOnUse">
      <stop stop-color="#071b2d"/>
      <stop offset="0.58" stop-color="#03101e"/>
      <stop offset="1" stop-color="#000712"/>
    </radialGradient>
    <linearGradient id="track-fill" x1="0" x2="0" y1="58" y2="278" gradientUnits="userSpaceOnUse">
      <stop stop-color="#082135"/>
      <stop offset="0.5" stop-color="#041322"/>
      <stop offset="1" stop-color="#082235"/>
    </linearGradient>
    <linearGradient id="track-stroke" x1="0" x2="0" y1="58" y2="278" gradientUnits="userSpaceOnUse">
      <stop stop-color="#6092ae"/>
      <stop offset="0.5" stop-color="#315d78"/>
      <stop offset="1" stop-color="#2f5a74"/>
    </linearGradient>
    <linearGradient id="cyan-fill" x1="82" x2="131" y1="114" y2="168" gradientUnits="userSpaceOnUse">
      <stop stop-color="#29daf3"/>
      <stop offset="0.58" stop-color="#0fa9cf"/>
      <stop offset="1" stop-color="#087ea9"/>
    </linearGradient>
    <linearGradient id="cyan-fill-low" x1="231" x2="281" y1="203" y2="251" gradientUnits="userSpaceOnUse">
      <stop stop-color="#27d8f0"/>
      <stop offset="0.55" stop-color="#0ea5c8"/>
      <stop offset="1" stop-color="#087aa4"/>
    </linearGradient>
    <linearGradient id="amber-fill" x1="158" x2="207" y1="146" y2="198" gradientUnits="userSpaceOnUse">
      <stop stop-color="#ffd64b"/>
      <stop offset="0.5" stop-color="#ffc114"/>
      <stop offset="1" stop-color="#f59600"/>
    </linearGradient>
    <filter id="track-shadow" x="70" y="45" width="220" height="250" color-interpolation-filters="sRGB" filterUnits="userSpaceOnUse">
      <feDropShadow dx="0" dy="2" flood-color="#00030a" flood-opacity="0.78" stdDeviation="2.6"/>
    </filter>
    <filter id="cyan-shadow" x="70" y="100" width="75" height="82" color-interpolation-filters="sRGB" filterUnits="userSpaceOnUse">
      <feDropShadow dx="0" dy="5" flood-color="#00050d" flood-opacity="0.72" stdDeviation="3"/>
      <feDropShadow dx="0" dy="0" flood-color="#19cff0" flood-opacity="0.22" stdDeviation="4"/>
    </filter>
    <filter id="amber-shadow" x="146" y="134" width="73" height="78" color-interpolation-filters="sRGB" filterUnits="userSpaceOnUse">
      <feDropShadow dx="0" dy="5" flood-color="#00050d" flood-opacity="0.72" stdDeviation="3"/>
      <feDropShadow dx="0" dy="0" flood-color="#ffc300" flood-opacity="0.18" stdDeviation="4"/>
    </filter>
    <filter id="cyan-low-shadow" x="218" y="190" width="77" height="76" color-interpolation-filters="sRGB" filterUnits="userSpaceOnUse">
      <feDropShadow dx="0" dy="5" flood-color="#00050d" flood-opacity="0.72" stdDeviation="3"/>
      <feDropShadow dx="0" dy="0" flood-color="#19cff0" flood-opacity="0.2" stdDeviation="4"/>
    </filter>
  </defs>

  <rect width="343" height="328" fill="url(#bg-glow)"/>

  <g filter="url(#track-shadow)">
    <rect x="96.5" y="58.5" width="22" height="218" rx="11" fill="url(#track-fill)" stroke="url(#track-stroke)" stroke-width="4"/>
    <path fill="none" stroke="#8bbbd1" stroke-linecap="round" stroke-opacity="0.22" stroke-width="2" d="M107.5 64.5v206"/>
    <path fill="none" stroke="#00111f" stroke-linecap="round" stroke-opacity="0.5" stroke-width="4" d="M107.5 74v186"/>

    <rect x="170.5" y="58.5" width="22" height="218" rx="11" fill="url(#track-fill)" stroke="url(#track-stroke)" stroke-width="4"/>
    <path fill="none" stroke="#8bbbd1" stroke-linecap="round" stroke-opacity="0.22" stroke-width="2" d="M181.5 64.5v206"/>
    <path fill="none" stroke="#00111f" stroke-linecap="round" stroke-opacity="0.5" stroke-width="4" d="M181.5 74v186"/>

    <rect x="244.5" y="58.5" width="22" height="218" rx="11" fill="url(#track-fill)" stroke="url(#track-stroke)" stroke-width="4"/>
    <path fill="none" stroke="#8bbbd1" stroke-linecap="round" stroke-opacity="0.22" stroke-width="2" d="M255.5 64.5v206"/>
    <path fill="none" stroke="#00111f" stroke-linecap="round" stroke-opacity="0.5" stroke-width="4" d="M255.5 74v186"/>
  </g>

  <g filter="url(#cyan-shadow)">
    <path fill="url(#cyan-fill)" stroke="#24d9f1" stroke-linejoin="round" stroke-width="4" d="M107.5 114 131 131.1v34.4c0 1.4-1.1 2.5-2.5 2.5h-42c-1.4 0-2.5-1.1-2.5-2.5v-34.4z"/>
    <path fill="none" stroke="#a7f6ff" stroke-linecap="round" stroke-linejoin="round" stroke-opacity="0.42" stroke-width="2" d="m89 131.6 18.5-13.5 18.5 13.5"/>
    <path fill="#001b2e" fill-opacity="0.12" d="M86 159h43v6.5c0 .3-.2.5-.5.5h-42c-.3 0-.5-.2-.5-.5z"/>
  </g>

  <g filter="url(#amber-shadow)">
    <path fill="url(#amber-fill)" stroke="#ffd34a" stroke-linejoin="round" stroke-width="4" d="M183.5 146 207 163.1v34.4c0 1.4-1.1 2.5-2.5 2.5h-42c-1.4 0-2.5-1.1-2.5-2.5v-34.4z"/>
    <path fill="none" stroke="#fff2a1" stroke-linecap="round" stroke-linejoin="round" stroke-opacity="0.5" stroke-width="2" d="m165 163.6 18.5-13.5 18.5 13.5"/>
    <path fill="#7a3300" fill-opacity="0.12" d="M162 191h43v6.5c0 .3-.2.5-.5.5h-42c-.3 0-.5-.2-.5-.5z"/>
  </g>

  <g filter="url(#cyan-low-shadow)">
    <path fill="url(#cyan-fill-low)" stroke="#24d9f1" stroke-linejoin="round" stroke-width="4" d="M256.5 203 280 220.1v29.4c0 1.4-1.1 2.5-2.5 2.5h-42c-1.4 0-2.5-1.1-2.5-2.5v-29.4z"/>
    <path fill="none" stroke="#a7f6ff" stroke-linecap="round" stroke-linejoin="round" stroke-opacity="0.42" stroke-width="2" d="m238 220.6 18.5-13.5 18.5 13.5"/>
    <path fill="#001b2e" fill-opacity="0.12" d="M235 243h43v6.5c0 .3-.2.5-.5.5h-42c-.3 0-.5-.2-.5-.5z"/>
  </g>
</svg>
